<svg xmlns="http://www.w3.org/2000/svg" width="900" height="520" viewBox="0 0 900 520" role="img" aria-label="Електровелосипед InService">
  <defs>
    <linearGradient id="bg" x1="0" x2="1" y1="0" y2="1">
      <stop offset="0" stop-color="#eef6ff"/>
      <stop offset="1" stop-color="#fff4ec"/>
    </linearGradient>
    <filter id="shadow" x="-20%" y="-20%" width="140%" height="140%">
      <feDropShadow dx="0" dy="18" stdDeviation="18" flood-color="#10243d" flood-opacity="0.16"/>
    </filter>
  </defs>
  <rect width="900" height="520" rx="38" fill="url(#bg)"/>
  <g opacity="0.55" stroke="#dce6f2" stroke-width="2">
    <path d="M70 92h760M70 164h760M70 236h760M70 308h760M70 380h760"/>
    <path d="M144 60v400M248 60v400M352 60v400M456 60v400M560 60v400M664 60v400M768 60v400"/>
  </g>
  <g filter="url(#shadow)">
    <circle cx="250" cy="345" r="92" fill="#fff" stroke="#10243d" stroke-width="18"/>
    <circle cx="650" cy="345" r="92" fill="#fff" stroke="#10243d" stroke-width="18"/>
    <circle cx="250" cy="345" r="24" fill="#f26522"/>
    <circle cx="650" cy="345" r="24" fill="#f26522"/>
    <path d="M250 345l116-138h145l139 138M366 207l93 138M511 207l-52 138M366 207h-66" fill="none" stroke="#10243d" stroke-width="18" stroke-linecap="round" stroke-linejoin="round"/>
    <path d="M511 207l44-68h68" fill="none" stroke="#10243d" stroke-width="18" stroke-linecap="round"/>
    <path d="M300 207l-42-70h-58" fill="none" stroke="#10243d" stroke-width="18" stroke-linecap="round"/>
    <rect x="402" y="255" width="120" height="58" rx="16" fill="#f26522"/>
    <path d="M522 284h58" stroke="#f26522" stroke-width="18" stroke-linecap="round"/>
    <path d="M630 136l66 28" stroke="#10243d" stroke-width="16" stroke-linecap="round"/>
    <path d="M180 137h92" stroke="#10243d" stroke-width="16" stroke-linecap="round"/>
  </g>
  <g transform="translate(650 68)">
    <rect width="148" height="58" rx="29" fill="#fff" stroke="#ffd6bf"/>
    <text x="74" y="37" text-anchor="middle" font-family="Segoe UI, Arial" font-size="18" font-weight="800" fill="#f26522">E-BIKE</text>
  </g>
</svg>
