<svg xmlns="http://www.w3.org/2000/svg" viewBox="0 0 900 520" role="img" aria-labelledby="title desc">
  <title id="title">Ремонт моноколеса InService</title>
  <desc id="desc">Стилізоване моноколесо в сервісній майстерні</desc>
  <defs>
    <linearGradient id="bg" x1="0" y1="0" x2="1" y2="1">
      <stop offset="0" stop-color="#f7fbff"/>
      <stop offset="1" stop-color="#fff2e9"/>
    </linearGradient>
    <filter id="shadow" x="-20%" y="-20%" width="140%" height="140%">
      <feDropShadow dx="0" dy="18" stdDeviation="18" flood-color="#14263d" flood-opacity=".18"/>
    </filter>
    <pattern id="grid" width="70" height="70" patternUnits="userSpaceOnUse">
      <path d="M70 0H0V70" fill="none" stroke="#dce6f2" stroke-width="1" opacity=".7"/>
    </pattern>
  </defs>
  <rect width="900" height="520" rx="32" fill="url(#bg)"/>
  <rect x="40" y="35" width="820" height="450" rx="28" fill="url(#grid)" opacity=".75"/>
  <g filter="url(#shadow)">
    <ellipse cx="450" cy="418" rx="210" ry="24" fill="#14263d" opacity=".14"/>
    <circle cx="450" cy="270" r="142" fill="#13263d"/>
    <circle cx="450" cy="270" r="104" fill="#fff"/>
    <circle cx="450" cy="270" r="66" fill="#f26522"/>
    <circle cx="450" cy="270" r="36" fill="#fff6f1"/>
    <path d="M374 122h152c34 0 59 28 53 62l-18 92c-7 36-38 62-75 62h-72c-37 0-68-26-75-62l-18-92c-6-34 19-62 53-62Z" fill="#f7fbff" stroke="#d9e5f2" stroke-width="8"/>
    <path d="M380 148h140c16 0 27 15 23 30l-13 53c-5 21-23 35-44 35h-72c-21 0-39-14-44-35l-13-53c-4-15 7-30 23-30Z" fill="#14263d"/>
    <rect x="405" y="300" width="90" height="42" rx="16" fill="#f26522"/>
    <path d="M298 270h-72m448 0h-72" stroke="#f26522" stroke-width="16" stroke-linecap="round"/>
    <path d="M300 310l-44 62m344-62 44 62" stroke="#14263d" stroke-width="16" stroke-linecap="round"/>
  </g>
  <g fill="#14263d" font-family="Segoe UI, Arial, sans-serif" font-weight="800">
    <text x="58" y="86" font-size="24">АКБ / BMS</text>
    <text x="682" y="86" font-size="24">MOTOR</text>
    <text x="62" y="445" font-size="22">BALANCE</text>
    <text x="703" y="445" font-size="22">CTRL</text>
  </g>
  <g stroke="#f26522" stroke-width="4" stroke-linecap="round" opacity=".9">
    <path d="M184 95c44 22 74 42 104 78"/>
    <path d="M716 95c-46 24-80 45-112 84"/>
    <path d="M176 420c42-35 79-54 124-72"/>
    <path d="M724 420c-44-35-82-54-124-72"/>
  </g>
</svg>
